# xmcd
#
# Track frame offsets: 
#        150
#        4187
#        26794
#        47472
#        64927
#        82715
#        100548
#        118603
#        140951
#        162634
#        167936
#        182552
#        200408
#        216558
#        234954
#        239913
#        260634
#        276854
#        284873
#
# Disc length: 4102 seconds
#
# Revision: 0
# Processed by: cddbd v1.5.2PL0 Copyright (c) Steve Scherf et al.
# Submitted via: ExactAudioCopyFreeDBPlugin 1.0
#
DISCID=25100413
DTITLE=Missy Elliott - Miss E ...So Addictive
DYEAR=2001
DGENRE=Rap
TTITLE0=So Addictive Feat. Tweet (Intro)
TTITLE1=Dog In Heat Feat. Method Man and Redman
TTITLE2=One Minute Man Feat. Ludacris
TTITLE3=Lick Shots
TTITLE4=Get Ur Freak On
TTITLE5=Scream a.k.a Itchin'
TTITLE6=Old School Joint
TTITLE7=Take Away Feat. Ginuwine
TTITLE8=For My People Feat. Eve
TTITLE9=Bus-A-Bus Feat. Busta Rhymes (Interlude)
TTITLE10=Whatcha Gon' Do Feat. Timbaland
TTITLE11=Step Off
TTITLE12=X-Tasy
TTITLE13=Slap! Slap! Slap! Feat. Da Brat and Jade
TTITLE14=I`ve Changed Feat. Lil` Mo (Interlude)
TTITLE15=One Minute Man Feat. Jay-Z (Remix)
TTITLE16=I'm Movin' On
TTITLE17=Higher Ground
TTITLE18=For My People (Basement Jaxx Remix)
EXTD=
EXTT0=
EXTT1=
EXTT2=
EXTT3=
EXTT4=
EXTT5=
EXTT6=
EXTT7=
EXTT8=
EXTT9=
EXTT10=
EXTT11=
EXTT12=
EXTT13=
EXTT14=
EXTT15=
EXTT16=
EXTT17=
EXTT18=
PLAYORDER=
